<svg width="583" height="184" viewBox="0 0 583 184" fill="none" xmlns="http://www.w3.org/2000/svg">
<path d="M393.026 33.4019H373.823V14.1992C373.823 6.35902 367.464 0 359.624 0C351.782 0 345.432 6.35902 345.432 14.1992V33.427H359.624C367.464 33.427 373.823 39.786 373.823 47.628V61.793H393.026C400.86 61.793 407.219 55.4376 407.219 47.5939C407.219 39.7591 400.862 33.4001 393.026 33.4001V33.4019Z" fill="#EF494F"/>
<path d="M359.624 61.793C351.784 61.793 345.432 55.443 345.432 47.5993V33.4324H326.222C318.382 33.4324 312.03 39.7842 312.03 47.6262C312.03 55.461 318.382 61.8182 326.222 61.8182H345.432V81.0263C345.432 88.8628 351.782 95.2201 359.624 95.2201C367.458 95.2201 373.817 88.8646 373.817 81.0263V61.793H359.624Z" fill="#2E9BD6"/>
<path d="M373.821 47.6262C373.821 39.7842 367.462 33.4324 359.627 33.4324H345.428V47.5993C345.428 55.4394 351.785 61.793 359.627 61.793H373.821V47.6262Z" fill="#354C89"/>
<path d="M203.815 1.01256H235.889V16.7413H203.815V1.01256ZM209.594 94.2129C198.494 94.2129 189.919 91.3565 183.887 85.6402C177.853 79.9258 174.832 71.9079 174.832 61.5956H193.763C193.763 66.775 195.176 70.8001 198.002 73.6637C200.822 76.5362 204.801 77.9671 209.939 77.9671C215.126 77.9671 219.129 76.5416 221.955 73.696C224.774 70.8522 226.187 66.8145 226.187 61.5974V1.01435H244.359V61.5974C244.359 71.9474 241.294 79.9778 235.17 85.6744C229.047 91.3709 220.519 94.2147 209.596 94.2147L209.594 94.2129Z" fill="#2E9BD6"/>
<path d="M252.167 77.1933H319.211V92.9221H252.167V77.1933ZM252.167 39.0033H306.82V54.7967H252.167V39.0033ZM252.167 1.01256H319.211V16.7413H252.167V1.01256ZM252.167 1.01256H270.339V92.9239H252.167V1.01256Z" fill="#2E9BD6"/>
<path d="M400.826 15.4146C400.826 20.2548 396.905 24.1829 392.058 24.1829C387.218 24.1829 383.295 20.2548 383.295 15.4146C383.295 10.5744 387.218 6.64627 392.058 6.64627C396.905 6.64627 400.826 10.5744 400.826 15.4146Z" stroke="#373435" stroke-width="0.333929" stroke-miterlimit="10"/>
<path d="M390.072 14.5995H392.113C393.455 14.5995 393.975 14.0879 393.975 13.1471C393.975 12.2279 393.372 11.7162 392.18 11.7162H390.072V14.5995ZM390.072 16.5439V21.0609H387.688V9.77191H392.647C395.108 9.77191 396.431 11.1256 396.431 12.8688C396.431 14.3841 395.607 15.2081 394.79 15.5457C395.349 15.7467 396.198 16.3302 396.198 18.3499V18.9083C396.198 19.6659 396.203 20.5295 396.359 21.0591H394.047C393.844 20.5672 393.806 19.7234 393.806 18.5259V18.3571C393.806 17.1255 393.496 16.5421 391.681 16.5421H390.074L390.072 16.5439Z" fill="#373435"/>
<path d="M15.8957 116.231H33.497V125.407H15.8957V116.231ZM19.0735 170.636C12.9748 170.636 8.28001 168.97 4.95867 165.627C1.65528 162.293 0 157.611 0 151.595H10.3877C10.3877 154.613 11.1561 156.966 12.7055 158.645C14.2584 160.311 16.4397 161.153 19.2548 161.153C22.1075 161.153 24.3014 160.32 25.8544 158.665C27.4037 156.999 28.1811 154.641 28.1811 151.597V116.232H38.1487V151.597C38.1487 157.64 36.4665 162.322 33.1021 165.647C29.7412 168.97 25.068 170.636 19.0735 170.636Z" fill="#354C89"/>
<path d="M69.3911 148.045C69.4665 145.374 68.9315 143.275 67.7807 141.756C66.6317 140.234 64.8704 139.466 62.4773 139.466C61.2726 139.466 60.2188 139.697 59.3247 140.148C58.427 140.607 57.6874 141.22 57.0931 141.986C56.5025 142.751 56.05 143.663 55.7359 144.706C55.4181 145.751 55.2368 146.862 55.1883 148.047H69.3911V148.045ZM78.6046 150.765C78.6046 151.925 78.3551 152.776 77.829 153.333C77.321 153.887 76.6046 154.166 75.7034 154.166H55.1901C55.1901 155.602 55.3535 156.902 55.6982 158.072C56.0339 159.239 56.5797 160.236 57.3265 161.062C58.0644 161.873 59.0231 162.498 60.1901 162.927C61.3678 163.358 62.7663 163.571 64.4037 163.571C66.0697 163.571 67.5257 163.446 68.7896 163.207C70.0445 162.977 71.1343 162.708 72.0553 162.419C72.9745 162.133 73.7411 161.866 74.3425 161.627C74.9458 161.385 75.4341 161.263 75.8093 161.263C76.0373 161.263 76.2294 161.309 76.373 161.395C76.5256 161.482 76.6495 161.645 76.7554 161.864C76.8506 162.096 76.926 162.417 76.9673 162.83C76.9942 163.243 77.0247 163.769 77.0247 164.403C77.0247 164.956 77.005 165.426 76.9763 165.819C76.9565 166.202 76.9188 166.535 76.8703 166.816C76.8129 167.092 76.7447 167.331 76.6423 167.512C76.5436 167.704 76.4107 167.887 76.2492 168.058C76.0858 168.239 75.6352 168.482 74.9081 168.785C74.181 169.083 73.242 169.379 72.1128 169.666C70.9835 169.954 69.6801 170.203 68.2151 170.424C66.7591 170.632 65.199 170.749 63.5329 170.749C60.5365 170.749 57.9118 170.367 55.6605 169.609C53.4109 168.851 51.5241 167.711 50.0124 166.169C48.5007 164.638 47.3787 162.695 46.6336 160.358C45.885 158.013 45.5205 155.263 45.5205 152.123C45.5205 149.126 45.9029 146.424 46.6911 144.022C47.4666 141.616 48.6049 139.579 50.0896 137.893C51.5743 136.227 53.3858 134.941 55.5115 134.064C57.6371 133.182 60.0392 132.742 62.7125 132.742C65.5275 132.742 67.9404 133.164 69.9404 133.988C71.944 134.819 73.5813 135.97 74.874 137.444C76.1576 138.918 77.1055 140.661 77.707 142.672C78.3102 144.694 78.6082 146.886 78.6082 149.252V150.764L78.6046 150.765Z" fill="#354C89"/>
<path d="M110.451 151.938C110.451 150.5 110.345 149.121 110.134 147.801C109.913 146.48 109.55 145.3 109.035 144.266C108.516 143.232 107.837 142.406 106.994 141.796C106.152 141.171 105.1 140.868 103.845 140.868C103.213 140.868 102.59 140.963 101.977 141.153C101.353 141.345 100.723 141.652 100.08 142.074C99.4389 142.505 98.7764 143.06 98.0978 143.74C97.4192 144.419 96.6992 145.263 95.9416 146.268V157.376C97.2827 159.062 98.5484 160.365 99.7638 161.284C100.969 162.202 102.234 162.663 103.538 162.663C104.773 162.663 105.827 162.345 106.687 161.713C107.557 161.092 108.266 160.27 108.834 159.243C109.38 158.229 109.789 157.071 110.049 155.787C110.315 154.503 110.451 153.22 110.451 151.938ZM120.354 151.256C120.354 154.252 120.029 156.954 119.385 159.358C118.744 161.76 117.805 163.81 116.57 165.496C115.335 167.182 113.803 168.485 111.963 169.383C110.125 170.293 108.019 170.742 105.652 170.742C104.667 170.742 103.776 170.656 102.954 170.465C102.128 170.273 101.344 169.984 100.579 169.595C99.8033 169.202 99.0457 168.713 98.2917 168.139C97.5341 167.564 96.7495 166.882 95.9434 166.097V181.966C95.9434 182.212 95.8788 182.444 95.7226 182.645C95.57 182.846 95.3097 183.02 94.947 183.153C94.5826 183.289 94.0942 183.402 93.4928 183.471C92.8896 183.555 92.114 183.593 91.1858 183.593C90.2576 183.593 89.491 183.555 88.886 183.471C88.2828 183.402 87.7945 183.289 87.4318 183.153C87.0674 183.02 86.8106 182.846 86.6562 182.645C86.5036 182.444 86.4282 182.214 86.4282 181.966V134.898C86.4282 134.638 86.4929 134.417 86.6185 134.236C86.7424 134.046 86.9632 133.891 87.281 133.766C87.597 133.633 88.0081 133.545 88.5252 133.48C89.044 133.412 89.6957 133.383 90.4803 133.383C91.2271 133.383 91.868 133.414 92.3851 133.48C92.9003 133.545 93.3133 133.633 93.631 133.766C93.9345 133.891 94.166 134.046 94.2899 134.236C94.4138 134.417 94.4802 134.638 94.4802 134.898V138.862C95.4569 137.859 96.4263 136.968 97.3635 136.2C98.3132 135.435 99.2809 134.783 100.258 134.275C101.243 133.76 102.258 133.378 103.292 133.119C104.345 132.87 105.455 132.744 106.644 132.744C109.103 132.744 111.213 133.222 112.943 134.198C114.687 135.164 116.103 136.498 117.195 138.184C118.288 139.87 119.092 141.832 119.6 144.071C120.098 146.32 120.358 148.706 120.358 151.254L120.354 151.256Z" fill="#354C89"/>
<path d="M182.997 168.591C182.997 168.841 182.939 169.06 182.806 169.254C182.683 169.444 182.462 169.598 182.144 169.731C181.83 169.857 181.417 169.952 180.9 170.008C180.381 170.076 179.74 170.105 178.954 170.105C178.122 170.105 177.453 170.074 176.934 170.008C176.419 169.95 176.013 169.855 175.71 169.731C175.403 169.598 175.191 169.444 175.067 169.254C174.941 169.061 174.877 168.841 174.877 168.591V164.704C173.017 166.715 171.112 168.227 169.187 169.232C167.263 170.239 165.27 170.747 163.202 170.747C160.886 170.747 158.939 170.372 157.37 169.618C155.791 168.86 154.518 167.826 153.548 166.516C152.582 165.202 151.882 163.69 151.471 161.966C151.058 160.243 150.846 158.097 150.846 155.521V134.893C150.846 134.643 150.914 134.423 151.058 134.241C151.191 134.049 151.451 133.886 151.816 133.764C152.18 133.638 152.668 133.541 153.281 133.476C153.902 133.419 154.668 133.39 155.57 133.39C156.498 133.39 157.273 133.421 157.877 133.476C158.48 133.541 158.968 133.64 159.331 133.764C159.695 133.886 159.952 134.049 160.108 134.241C160.252 134.423 160.327 134.643 160.327 134.893V153.941C160.327 155.703 160.442 157.044 160.672 157.981C160.893 158.913 161.248 159.715 161.706 160.376C162.175 161.045 162.771 161.564 163.487 161.929C164.207 162.293 165.04 162.474 165.995 162.474C167.203 162.474 168.419 162.035 169.636 161.153C170.864 160.272 172.164 158.99 173.553 157.304V134.895C173.553 134.645 173.622 134.424 173.762 134.243C173.898 134.051 174.148 133.888 174.519 133.766C174.884 133.64 175.363 133.543 175.975 133.478C176.58 133.421 177.347 133.392 178.275 133.392C179.203 133.392 179.979 133.423 180.582 133.478C181.185 133.543 181.665 133.642 182.009 133.766C182.361 133.888 182.613 134.051 182.774 134.243C182.918 134.424 182.995 134.645 182.995 134.895V168.593L182.997 168.591Z" fill="#354C89"/>
<path d="M216.28 159.078C216.28 160.992 215.916 162.677 215.2 164.135C214.49 165.598 213.476 166.825 212.162 167.803C210.851 168.789 209.3 169.516 207.508 170.015C205.727 170.503 203.785 170.751 201.697 170.751C200.44 170.751 199.236 170.656 198.096 170.464C196.947 170.273 195.921 170.044 195.011 169.747C194.101 169.46 193.345 169.164 192.742 168.857C192.139 168.559 191.699 168.273 191.421 168.013C191.144 167.747 190.932 167.334 190.78 166.769C190.625 166.194 190.55 165.36 190.55 164.25C190.55 163.523 190.58 162.939 190.625 162.496C190.684 162.056 190.749 161.704 190.855 161.435C190.95 161.176 191.087 160.993 191.23 160.909C191.383 160.823 191.575 160.772 191.803 160.772C192.083 160.772 192.485 160.936 193.029 161.254C193.564 161.561 194.245 161.913 195.049 162.288C195.855 162.67 196.792 163.024 197.864 163.342C198.929 163.667 200.144 163.839 201.516 163.839C202.365 163.839 203.122 163.753 203.794 163.57C204.464 163.399 205.04 163.141 205.528 162.816C206.025 162.491 206.399 162.069 206.647 161.57C206.896 161.072 207.022 160.489 207.022 159.837C207.022 159.08 206.79 158.428 206.322 157.882C205.862 157.345 205.241 156.877 204.476 156.473C203.708 156.071 202.837 155.688 201.869 155.336C200.903 154.981 199.907 154.598 198.88 154.166C197.866 153.735 196.871 153.248 195.902 152.692C194.936 152.135 194.063 151.457 193.298 150.65C192.523 149.846 191.909 148.88 191.438 147.74C190.968 146.611 190.74 145.252 190.74 143.66C190.74 142.053 191.054 140.568 191.688 139.227C192.32 137.875 193.219 136.728 194.408 135.769C195.586 134.814 197.033 134.065 198.727 133.538C200.431 133.011 202.338 132.744 204.455 132.744C205.508 132.744 206.542 132.819 207.528 132.972C208.525 133.126 209.433 133.317 210.237 133.538C211.043 133.767 211.722 134.006 212.279 134.275C212.833 134.534 213.226 134.764 213.465 134.954C213.704 135.146 213.878 135.34 213.973 135.529C214.079 135.71 214.147 135.931 214.205 136.198C214.252 136.467 214.291 136.792 214.338 137.184C214.375 137.577 214.395 138.055 214.395 138.642C214.395 139.32 214.375 139.877 214.338 140.306C214.291 140.73 214.232 141.074 214.147 141.32C214.061 141.57 213.936 141.744 213.783 141.828C213.639 141.914 213.458 141.965 213.257 141.965C213.034 141.965 212.681 141.828 212.203 141.563C211.722 141.302 211.121 141.017 210.401 140.719C209.691 140.412 208.858 140.125 207.912 139.866C206.964 139.597 205.893 139.475 204.684 139.475C203.824 139.475 203.085 139.559 202.453 139.733C201.821 139.914 201.313 140.164 200.903 140.491C200.501 140.814 200.203 141.2 200.002 141.64C199.794 142.09 199.695 142.561 199.695 143.056C199.695 143.841 199.934 144.493 200.415 145.019C200.893 145.545 201.517 146.015 202.302 146.417C203.087 146.819 203.968 147.202 204.964 147.557C205.957 147.902 206.964 148.295 207.988 148.706C209.004 149.119 210.018 149.607 211.015 150.164C212 150.717 212.893 151.399 213.677 152.202C214.453 153.006 215.083 153.974 215.564 155.085C216.042 156.214 216.28 157.536 216.28 159.078Z" fill="#354C89"/>
<path d="M279.626 168.519C279.626 168.765 279.551 168.997 279.387 169.198C279.224 169.399 278.946 169.562 278.574 169.697C278.199 169.819 277.691 169.918 277.059 169.993C276.428 170.069 275.633 170.106 274.674 170.106C273.698 170.106 272.883 170.069 272.242 169.993C271.601 169.918 271.093 169.819 270.73 169.697C270.366 169.561 270.098 169.399 269.935 169.198C269.771 168.997 269.696 168.767 269.696 168.519V148.764H251.414V168.519C251.414 168.765 251.337 168.997 251.183 169.198C251.03 169.399 250.763 169.562 250.391 169.697C250.016 169.819 249.509 169.918 248.887 169.993C248.255 170.069 247.439 170.106 246.463 170.106C245.504 170.106 244.712 170.069 244.061 169.993C243.418 169.918 242.91 169.819 242.527 169.697C242.156 169.561 241.887 169.399 241.723 169.198C241.549 168.997 241.474 168.767 241.474 168.519V122.362C241.474 122.101 241.549 121.881 241.723 121.681C241.887 121.48 242.154 121.317 242.527 121.193C242.91 121.06 243.418 120.965 244.061 120.886C244.712 120.811 245.504 120.773 246.463 120.773C247.439 120.773 248.255 120.811 248.887 120.886C249.508 120.965 250.016 121.06 250.391 121.193C250.763 121.317 251.032 121.48 251.183 121.681C251.337 121.882 251.414 122.101 251.414 122.362V140.308H269.696V122.362C269.696 122.101 269.771 121.881 269.935 121.681C270.098 121.48 270.366 121.317 270.73 121.193C271.095 121.06 271.601 120.965 272.242 120.886C272.883 120.811 273.696 120.773 274.674 120.773C275.633 120.773 276.428 120.811 277.059 120.886C277.691 120.965 278.199 121.06 278.574 121.193C278.946 121.317 279.226 121.48 279.387 121.681C279.551 121.882 279.626 122.101 279.626 122.362V168.519Z" fill="#354C89"/>
<path d="M311.622 148.045C311.698 145.374 311.163 143.275 310.023 141.756C308.874 140.234 307.102 139.466 304.707 139.466C303.502 139.466 302.448 139.697 301.558 140.148C300.657 140.607 299.919 141.22 299.326 141.986C298.732 142.751 298.281 143.663 297.967 144.706C297.649 145.751 297.468 146.862 297.421 148.047H311.621L311.622 148.045ZM320.836 150.765C320.836 151.925 320.586 152.776 320.069 153.333C319.55 153.887 318.834 154.166 317.933 154.166H297.421C297.421 155.602 297.592 156.902 297.929 158.072C298.263 159.239 298.809 160.236 299.556 161.062C300.294 161.873 301.253 162.498 302.43 162.927C303.597 163.358 305.007 163.571 306.633 163.571C308.299 163.571 309.766 163.446 311.021 163.207C312.276 162.977 313.366 162.708 314.287 162.419C315.208 162.133 315.972 161.866 316.576 161.627C317.179 161.385 317.667 161.263 318.05 161.263C318.272 161.263 318.462 161.309 318.617 161.395C318.769 161.482 318.893 161.645 318.999 161.864C319.094 162.096 319.163 162.417 319.2 162.83C319.238 163.243 319.258 163.769 319.258 164.403C319.258 164.956 319.238 165.426 319.22 165.819C319.2 166.202 319.152 166.535 319.103 166.816C319.057 167.092 318.981 167.331 318.875 167.512C318.78 167.704 318.644 167.887 318.482 168.058C318.319 168.239 317.868 168.482 317.141 168.785C316.414 169.083 315.475 169.379 314.346 169.666C313.217 169.954 311.913 170.203 310.459 170.424C308.992 170.632 307.432 170.749 305.777 170.749C302.78 170.749 300.156 170.367 297.894 169.609C295.644 168.851 293.757 167.711 292.256 166.169C290.741 164.638 289.612 162.695 288.874 160.358C288.127 158.013 287.755 155.263 287.755 152.123C287.755 149.126 288.147 146.424 288.922 144.022C289.707 141.616 290.836 139.579 292.321 137.893C293.816 136.227 295.617 134.941 297.743 134.064C299.868 133.182 302.274 132.742 304.944 132.742C307.759 132.742 310.172 133.164 312.172 133.988C314.175 134.819 315.82 135.97 317.103 137.444C318.387 138.918 319.335 140.661 319.936 142.672C320.541 144.694 320.838 146.886 320.838 149.252V150.764L320.836 150.765Z" fill="#354C89"/>
<path d="M348.039 154.281H344.409C342.877 154.281 341.567 154.396 340.484 154.615C339.401 154.846 338.522 155.18 337.84 155.638C337.161 156.088 336.662 156.634 336.346 157.277C336.028 157.918 335.875 158.665 335.875 159.489C335.875 160.895 336.315 162.006 337.217 162.812C338.107 163.625 339.353 164.027 340.933 164.027C342.274 164.027 343.498 163.683 344.619 163.002C345.741 162.324 346.877 161.327 348.037 160.017V154.281H348.039ZM357.365 168.711C357.365 169.056 357.243 169.333 356.994 169.534C356.744 169.745 356.342 169.878 355.805 169.977C355.259 170.061 354.455 170.11 353.403 170.11C352.274 170.11 351.441 170.061 350.933 169.977C350.414 169.878 350.042 169.745 349.83 169.534C349.619 169.333 349.516 169.056 349.516 168.711V166.029C348.127 167.514 346.547 168.674 344.773 169.496C342.992 170.329 341.03 170.751 338.866 170.751C337.064 170.751 335.427 170.512 333.935 170.042C332.43 169.582 331.139 168.893 330.048 167.973C328.945 167.045 328.093 165.916 327.491 164.555C326.886 163.194 326.581 161.604 326.581 159.796C326.581 157.83 326.963 156.117 327.737 154.67C328.506 153.223 329.653 152.026 331.177 151.09C332.7 150.142 334.595 149.442 336.863 148.984C339.125 148.534 341.757 148.302 344.753 148.302H348.039V146.272C348.039 145.211 347.936 144.29 347.714 143.494C347.505 142.699 347.148 142.038 346.66 141.512C346.172 140.976 345.511 140.584 344.698 140.335C343.875 140.085 342.859 139.959 341.653 139.959C340.064 139.959 338.656 140.134 337.41 140.489C336.155 140.843 335.066 141.236 334.098 141.656C333.139 142.087 332.344 142.478 331.703 142.834C331.062 143.178 330.536 143.36 330.132 143.36C329.856 143.36 329.617 143.274 329.396 143.09C329.184 142.92 329.014 142.67 328.87 142.333C328.726 142.008 328.631 141.606 328.545 141.128C328.477 140.647 328.439 140.121 328.439 139.537C328.439 138.764 328.497 138.139 328.631 137.688C328.753 137.239 328.996 136.828 329.34 136.464C329.694 136.099 330.306 135.699 331.197 135.256C332.078 134.816 333.102 134.403 334.288 134.02C335.477 133.649 336.77 133.342 338.159 133.103C339.558 132.861 341.001 132.739 342.486 132.739C345.13 132.739 347.389 132.997 349.267 133.512C351.143 134.031 352.685 134.827 353.893 135.898C355.109 136.959 355.988 138.338 356.545 140.035C357.091 141.721 357.367 143.721 357.367 146.04V168.706L357.365 168.711Z" fill="#354C89"/>
<path d="M376.37 168.591C376.37 168.841 376.295 169.06 376.151 169.254C375.988 169.444 375.739 169.598 375.376 169.731C375.004 169.857 374.523 169.952 373.92 170.008C373.317 170.076 372.541 170.105 371.613 170.105C370.685 170.105 369.909 170.074 369.306 170.008C368.703 169.95 368.214 169.855 367.85 169.731C367.484 169.598 367.225 169.444 367.082 169.254C366.929 169.061 366.854 168.841 366.854 168.591V118.92C366.854 118.67 366.929 118.439 367.082 118.24C367.225 118.039 367.484 117.864 367.85 117.724C368.214 117.588 368.703 117.482 369.306 117.407C369.909 117.331 370.685 117.301 371.613 117.301C372.541 117.301 373.317 117.331 373.92 117.407C374.523 117.482 375.002 117.588 375.376 117.724C375.74 117.866 375.99 118.039 376.151 118.24C376.295 118.441 376.37 118.67 376.37 118.92V168.591Z" fill="#354C89"/>
<path d="M405.796 165.27C405.796 166.379 405.731 167.232 405.595 167.826C405.451 168.41 405.27 168.832 405.042 169.061C404.812 169.309 404.485 169.521 404.045 169.713C403.605 169.895 403.087 170.058 402.492 170.2C401.9 170.336 401.257 170.449 400.568 170.517C399.869 170.593 399.18 170.641 398.473 170.641C396.586 170.641 394.947 170.392 393.559 169.914C392.169 169.446 391.031 168.699 390.119 167.71C389.221 166.713 388.55 165.46 388.119 163.947C387.688 162.442 387.478 160.65 387.478 158.582V141.326H383.437C382.959 141.326 382.595 141.019 382.335 140.435C382.087 139.841 381.963 138.855 381.963 137.467C381.963 136.737 381.99 136.126 382.058 135.618C382.115 135.11 382.212 134.717 382.335 134.421C382.458 134.134 382.622 133.932 382.816 133.796C383.006 133.674 383.225 133.615 383.475 133.615H387.478V126.098C387.478 125.839 387.543 125.62 387.686 125.408C387.823 125.207 388.072 125.044 388.444 124.9C388.808 124.767 389.297 124.661 389.909 124.604C390.53 124.536 391.288 124.507 392.198 124.507C393.126 124.507 393.902 124.538 394.525 124.604C395.139 124.661 395.627 124.767 395.981 124.9C396.325 125.044 396.586 125.207 396.729 125.408C396.882 125.62 396.957 125.839 396.957 126.098V133.615H404.284C404.543 133.615 404.762 133.674 404.945 133.796C405.137 133.932 405.289 134.134 405.413 134.421C405.55 134.717 405.645 135.11 405.701 135.618C405.769 136.126 405.796 136.737 405.796 137.467C405.796 138.855 405.674 139.839 405.413 140.435C405.166 141.019 404.803 141.326 404.322 141.326H396.957V157.146C396.957 158.984 397.245 160.363 397.828 161.282C398.404 162.203 399.438 162.661 400.923 162.661C401.431 162.661 401.882 162.623 402.282 162.528C402.684 162.442 403.047 162.336 403.363 162.23C403.67 162.115 403.939 162.009 404.158 161.923C404.37 161.839 404.561 161.79 404.742 161.79C404.885 161.79 405.029 161.839 405.173 161.923C405.309 162.009 405.412 162.193 405.498 162.46C405.573 162.719 405.641 163.074 405.699 163.532C405.767 163.983 405.794 164.566 405.794 165.266L405.796 165.27Z" fill="#354C89"/>
<path d="M444.86 168.591C444.86 168.841 444.781 169.06 444.63 169.254C444.476 169.444 444.228 169.598 443.873 169.731C443.519 169.857 443.04 169.952 442.429 170.008C441.805 170.076 441.051 170.105 440.139 170.105C439.21 170.105 438.435 170.074 437.812 170.008C437.198 169.95 436.71 169.855 436.356 169.731C436 169.598 435.753 169.444 435.598 169.254C435.455 169.061 435.379 168.841 435.379 168.591V149.361C435.379 147.724 435.254 146.44 435.015 145.512C434.776 144.584 434.431 143.78 433.981 143.11C433.521 142.448 432.936 141.932 432.219 141.568C431.5 141.204 430.666 141.022 429.711 141.022C428.503 141.022 427.279 141.462 426.042 142.342C424.817 143.223 423.525 144.507 422.193 146.193V168.591C422.193 168.841 422.117 169.06 421.965 169.254C421.821 169.444 421.552 169.598 421.189 169.731C420.825 169.857 420.345 169.952 419.733 170.008C419.128 170.076 418.361 170.105 417.433 170.105C416.505 170.105 415.728 170.074 415.133 170.008C414.523 169.95 414.042 169.855 413.677 169.731C413.313 169.598 413.045 169.444 412.902 169.254C412.749 169.061 412.674 168.841 412.674 168.591V118.92C412.674 118.67 412.751 118.439 412.902 118.24C413.045 118.039 413.315 117.864 413.677 117.724C414.042 117.588 414.521 117.482 415.133 117.407C415.728 117.331 416.505 117.301 417.433 117.301C418.361 117.301 419.128 117.331 419.733 117.407C420.343 117.482 420.825 117.588 421.189 117.724C421.553 117.866 421.821 118.039 421.965 118.24C422.117 118.441 422.193 118.67 422.193 118.92V137.545C423.832 135.927 425.496 134.73 427.202 133.934C428.898 133.139 430.668 132.748 432.508 132.748C434.796 132.748 436.729 133.119 438.302 133.877C439.882 134.634 441.155 135.669 442.124 136.979C443.09 138.283 443.788 139.812 444.219 141.566C444.65 143.317 444.862 145.433 444.862 147.923V168.589L444.86 168.591Z" fill="#354C89"/>
<path d="M479.686 163.23C479.686 163.878 479.666 164.428 479.628 164.875C479.59 165.318 479.542 165.681 479.484 165.988C479.416 166.291 479.341 166.534 479.255 166.724C479.159 166.916 478.967 167.155 478.671 167.444C478.364 167.731 477.849 168.085 477.122 168.498C476.391 168.92 475.562 169.293 474.63 169.62C473.693 169.945 472.687 170.21 471.587 170.412C470.493 170.613 469.364 170.71 468.204 170.71C465.61 170.71 463.312 170.307 461.309 169.501C459.309 168.697 457.623 167.501 456.262 165.929C454.914 164.36 453.878 162.435 453.188 160.175C452.499 157.905 452.154 155.309 452.154 152.388C452.154 149.017 452.564 146.096 453.409 143.645C454.262 141.186 455.44 139.155 456.944 137.546C458.456 135.929 460.248 134.731 462.316 133.956C464.373 133.171 466.643 132.789 469.113 132.789C470.109 132.789 471.106 132.875 472.072 133.047C473.048 133.229 473.949 133.468 474.791 133.767C475.635 134.071 476.391 134.408 477.061 134.791C477.723 135.166 478.201 135.5 478.481 135.767C478.757 136.044 478.948 136.283 479.064 136.466C479.179 136.658 479.265 136.897 479.323 137.204C479.391 137.511 479.449 137.884 479.486 138.313C479.517 138.764 479.535 139.29 479.535 139.923C479.535 141.39 479.409 142.412 479.159 143.008C478.901 143.602 478.576 143.888 478.174 143.888C477.743 143.888 477.292 143.717 476.815 143.362C476.334 143.008 475.77 142.625 475.118 142.195C474.466 141.764 473.682 141.372 472.774 141.028C471.872 140.672 470.781 140.491 469.528 140.491C467.057 140.491 465.17 141.449 463.86 143.344C462.546 145.248 461.894 148.037 461.894 151.715C461.894 153.523 462.057 155.124 462.382 156.512C462.72 157.891 463.197 159.051 463.84 159.99C464.488 160.918 465.296 161.616 466.262 162.085C467.228 162.553 468.361 162.785 469.641 162.785C470.944 162.785 472.073 162.593 473.023 162.202C473.96 161.808 474.793 161.376 475.493 160.887C476.203 160.419 476.797 159.977 477.274 159.595C477.743 159.202 478.156 159.001 478.483 159.001C478.703 159.001 478.892 159.069 479.048 159.193C479.201 159.316 479.314 159.557 479.413 159.889C479.488 160.234 479.565 160.665 479.614 161.193C479.671 161.719 479.689 162.401 479.689 163.234L479.686 163.23Z" fill="#354C89"/>
<path d="M505.488 154.281H501.858C500.324 154.281 499.012 154.396 497.933 154.615C496.85 154.846 495.967 155.18 495.289 155.638C494.606 156.088 494.111 156.634 493.795 157.277C493.477 157.918 493.325 158.665 493.325 159.489C493.325 160.895 493.764 162.006 494.666 162.812C495.556 163.625 496.8 164.027 498.38 164.027C499.721 164.027 500.947 163.683 502.069 163.002C503.188 162.324 504.328 161.327 505.488 160.017V154.281ZM514.814 168.711C514.814 169.056 514.689 169.333 514.439 169.534C514.191 169.745 513.791 169.878 513.253 169.977C512.707 170.061 511.904 170.11 510.847 170.11C509.718 170.11 508.884 170.061 508.376 169.977C507.861 169.878 507.486 169.745 507.278 169.534C507.066 169.333 506.96 169.056 506.96 168.711V166.029C505.572 167.514 503.992 168.674 502.22 169.496C500.439 170.329 498.477 170.751 496.31 170.751C494.509 170.751 492.874 170.512 491.38 170.042C489.876 169.582 488.581 168.893 487.483 167.973C486.391 167.045 485.54 165.916 484.933 164.555C484.33 163.194 484.023 161.604 484.023 159.796C484.023 157.83 484.405 156.117 485.183 154.67C485.948 153.223 487.1 152.026 488.623 151.09C490.143 150.142 492.041 149.442 494.31 148.984C496.57 148.534 499.204 148.302 502.201 148.302H505.486V146.272C505.486 145.211 505.38 144.29 505.161 143.494C504.949 142.699 504.595 142.038 504.107 141.512C503.619 140.976 502.958 140.584 502.145 140.335C501.319 140.085 500.305 139.959 499.1 139.959C497.509 139.959 496.104 140.134 494.858 140.489C493.603 140.843 492.502 141.236 491.544 141.656C490.588 142.087 489.793 142.478 489.152 142.834C488.509 143.178 487.982 143.36 487.581 143.36C487.305 143.36 487.062 143.274 486.843 143.09C486.635 142.92 486.461 142.67 486.317 142.333C486.174 142.008 486.079 141.606 485.992 141.128C485.928 140.647 485.89 140.121 485.89 139.537C485.89 138.764 485.948 138.139 486.08 137.688C486.193 137.239 486.445 136.828 486.79 136.464C487.145 136.099 487.755 135.699 488.649 135.256C489.529 134.816 490.554 134.403 491.741 134.02C492.928 133.649 494.211 133.342 495.608 133.103C497.007 132.861 498.454 132.739 499.938 132.739C502.579 132.739 504.841 132.997 506.716 133.512C508.594 134.031 510.136 134.827 511.34 135.898C512.556 136.959 513.439 138.338 513.996 140.035C514.542 141.721 514.818 143.721 514.818 146.04V168.706L514.814 168.711Z" fill="#354C89"/>
<path d="M545.942 138.035C545.942 138.945 545.922 139.683 545.866 140.257C545.82 140.841 545.742 141.292 545.637 141.625C545.541 141.95 545.409 142.182 545.245 142.306C545.082 142.432 544.87 142.487 544.624 142.487C544.421 142.487 544.193 142.449 543.942 142.363C543.692 142.268 543.407 142.182 543.089 142.076C542.775 141.981 542.43 141.886 542.055 141.8C541.672 141.703 541.26 141.656 540.8 141.656C540.274 141.656 539.746 141.769 539.22 141.981C538.694 142.202 538.148 142.527 537.572 142.986C537.006 143.437 536.412 144.04 535.8 144.796C535.179 145.554 534.527 146.482 533.818 147.591V168.591C533.818 168.841 533.741 169.06 533.59 169.254C533.436 169.444 533.177 169.598 532.814 169.731C532.45 169.857 531.971 169.952 531.367 170.011C530.764 170.076 529.989 170.106 529.06 170.106C528.132 170.106 527.357 170.076 526.753 170.011C526.148 169.952 525.662 169.857 525.296 169.731C524.931 169.598 524.674 169.444 524.531 169.254C524.378 169.061 524.303 168.841 524.303 168.591V134.893C524.303 134.645 524.36 134.423 524.484 134.241C524.606 134.04 524.838 133.888 525.173 133.764C525.498 133.638 525.92 133.543 526.436 133.476C526.954 133.419 527.595 133.39 528.378 133.39C529.184 133.39 529.856 133.421 530.382 133.476C530.908 133.545 531.319 133.64 531.606 133.764C531.893 133.888 532.105 134.04 532.231 134.241C532.353 134.423 532.421 134.645 532.421 134.893V139.087C533.303 137.832 534.137 136.8 534.909 135.976C535.698 135.162 536.432 134.511 537.141 134.033C537.85 133.552 538.55 133.218 539.258 133.026C539.958 132.845 540.667 132.749 541.374 132.749C541.699 132.749 542.053 132.769 542.428 132.807C542.811 132.845 543.193 132.902 543.595 132.988C543.997 133.074 544.353 133.18 544.66 133.295C544.956 133.41 545.175 133.527 545.321 133.651C545.453 133.783 545.559 133.916 545.617 134.06C545.685 134.223 545.741 134.424 545.791 134.692C545.848 134.95 545.886 135.354 545.906 135.88C545.936 136.406 545.944 137.123 545.944 138.033L545.942 138.035Z" fill="#354C89"/>
<path d="M572.841 148.045C572.917 145.374 572.38 143.275 571.24 141.756C570.091 140.234 568.319 139.466 565.926 139.466C564.721 139.466 563.667 139.697 562.777 140.148C561.875 140.607 561.139 141.22 560.545 141.986C559.951 142.751 559.5 143.663 559.184 144.706C558.866 145.751 558.685 146.862 558.638 148.047H572.841V148.045ZM582.051 150.765C582.051 151.925 581.805 152.776 581.286 153.333C580.771 153.887 580.051 154.166 579.15 154.166H558.638C558.638 155.602 558.809 156.902 559.147 158.072C559.48 159.239 560.026 160.236 560.775 161.062C561.511 161.873 562.47 162.498 563.647 162.927C564.814 163.358 566.224 163.571 567.852 163.571C569.516 163.571 570.981 163.446 572.236 163.207C573.491 162.977 574.585 162.708 575.502 162.419C576.421 162.133 577.188 161.866 577.789 161.627C578.394 161.385 578.882 161.263 579.267 161.263C579.488 161.263 579.676 161.309 579.832 161.395C579.985 161.482 580.109 161.645 580.215 161.864C580.31 162.096 580.378 162.417 580.416 162.83C580.453 163.243 580.473 163.769 580.473 164.403C580.473 164.956 580.453 165.426 580.435 165.819C580.416 166.202 580.367 166.535 580.321 166.816C580.272 167.092 580.197 167.331 580.091 167.512C579.996 167.704 579.859 167.887 579.698 168.058C579.534 168.239 579.087 168.482 578.36 168.785C577.629 169.083 576.694 169.379 575.561 169.666C574.432 169.954 573.128 170.203 571.674 170.424C570.209 170.632 568.647 170.749 566.992 170.749C563.996 170.749 561.371 170.367 559.112 169.609C556.863 168.851 554.976 167.711 553.472 166.169C551.956 164.638 550.827 162.695 550.093 160.358C549.344 158.013 548.971 155.263 548.971 152.123C548.971 149.126 549.362 146.424 550.138 144.022C550.922 141.616 552.053 139.579 553.538 137.893C555.032 136.227 556.831 134.941 558.956 134.064C561.082 133.182 563.488 132.742 566.157 132.742C568.972 132.742 571.385 133.164 573.389 133.988C575.389 134.819 577.037 135.97 578.319 137.444C579.602 138.918 580.55 140.661 581.155 142.672C581.759 144.694 582.053 146.886 582.053 149.252V150.764L582.051 150.765Z" fill="#354C89"/>
<path d="M134.992 172.085C129.829 172.085 125.646 167.898 125.646 162.738V129.518C125.646 124.358 129.829 120.171 134.992 120.171C140.162 120.171 144.346 124.358 144.346 129.518V162.738C144.346 167.898 140.162 172.085 134.992 172.085Z" fill="#354C89"/>
<path d="M134.992 122.035C130.768 122.035 127.34 125.464 127.34 129.696V146.13H142.653V129.696C142.653 125.464 139.224 122.035 134.992 122.035Z" fill="#EF494F"/>
</svg>
